<svg width="38" height="38" viewBox="0 0 38 38" fill="none" xmlns="http://www.w3.org/2000/svg">
<path d="M7.91666 11.0833H29.7508C30.1932 11.0833 30.6307 11.176 31.0351 11.3554C31.4395 11.5349 31.8018 11.7971 32.0987 12.1251C32.3955 12.4531 32.6204 12.8397 32.7587 13.26C32.897 13.6802 32.9457 14.1248 32.9017 14.565L31.9517 24.065C31.8735 24.8464 31.5078 25.5709 30.9256 26.0978C30.3434 26.6247 29.5861 26.9166 28.8008 26.9166H13.68C12.9477 26.9169 12.2379 26.6633 11.6714 26.1991C11.105 25.7349 10.717 25.0887 10.5735 24.3706L7.91666 11.0833Z" stroke="#F6F6F6" stroke-width="3" stroke-linejoin="round"/>
<path d="M7.91666 11.0833L6.63416 5.94858C6.54838 5.60619 6.35066 5.30228 6.0724 5.08512C5.79414 4.86796 5.45129 4.75001 5.09832 4.75H3.16666" stroke="#F6F6F6" stroke-width="3" stroke-linecap="round" stroke-linejoin="round"/>
<path d="M12.6667 33.25H15.8333" stroke="#F6F6F6" stroke-width="3" stroke-linecap="round" stroke-linejoin="round"/>
<path d="M25.3333 33.25H28.5" stroke="#F6F6F6" stroke-width="3" stroke-linecap="round" stroke-linejoin="round"/>
</svg>
