<svg width="202" height="29" viewBox="0 0 202 29" fill="none" xmlns="http://www.w3.org/2000/svg">
<path d="M0.844 2.512H17.296V6.616H5.38V13.312H16.612V17.416H5.38V28H0.844V2.512ZM36.8879 28H32.7839V25.228H32.7119C32.3039 26.092 31.6799 26.848 30.8399 27.496C29.9999 28.12 28.8599 28.432 27.4199 28.432C26.2679 28.432 25.2839 28.252 24.4679 27.892C23.6759 27.508 23.0279 27.004 22.5239 26.38C22.0199 25.732 21.6599 25 21.4439 24.184C21.2279 23.368 21.1199 22.516 21.1199 21.628V10.72H25.4399V19.468C25.4399 19.948 25.4639 20.488 25.5119 21.088C25.5599 21.664 25.6799 22.216 25.8719 22.744C26.0879 23.248 26.3999 23.68 26.8079 24.04C27.2399 24.376 27.8399 24.544 28.6079 24.544C29.3279 24.544 29.9279 24.424 30.4079 24.184C30.9119 23.944 31.3199 23.62 31.6319 23.212C31.9679 22.804 32.2079 22.336 32.3519 21.808C32.4959 21.28 32.5679 20.728 32.5679 20.152V10.72H36.8879V28ZM41.7918 10.72H45.8958V13.492H45.9678C46.3758 12.628 46.9998 11.884 47.8398 11.26C48.6798 10.612 49.8198 10.288 51.2598 10.288C52.4118 10.288 53.3838 10.48 54.1758 10.864C54.9918 11.248 55.6518 11.752 56.1558 12.376C56.6598 13 57.0198 13.72 57.2358 14.536C57.4518 15.352 57.5598 16.204 57.5598 17.092V28H53.2398V19.252C53.2398 18.772 53.2158 18.244 53.1678 17.668C53.1198 17.068 52.9878 16.516 52.7718 16.012C52.5798 15.484 52.2678 15.052 51.8358 14.716C51.4038 14.356 50.8158 14.176 50.0718 14.176C49.3518 14.176 48.7398 14.296 48.2358 14.536C47.7558 14.776 47.3478 15.1 47.0118 15.508C46.6998 15.916 46.4718 16.384 46.3278 16.912C46.1838 17.44 46.1118 17.992 46.1118 18.568V28H41.7918V10.72ZM62.4636 0.783998H66.7836V17.884L73.4436 10.72H78.9876L71.5716 18.568L79.4556 28H73.7316L66.8556 19.18H66.7836V28H62.4636V0.783998ZM80.9356 19.36C80.9356 17.992 81.1756 16.756 81.6556 15.652C82.1596 14.524 82.8316 13.564 83.6716 12.772C84.5116 11.98 85.5076 11.368 86.6596 10.936C87.8116 10.504 89.0356 10.288 90.3316 10.288C91.6276 10.288 92.8516 10.504 94.0036 10.936C95.1556 11.368 96.1516 11.98 96.9916 12.772C97.8316 13.564 98.4916 14.524 98.9716 15.652C99.4756 16.756 99.7276 17.992 99.7276 19.36C99.7276 20.728 99.4756 21.976 98.9716 23.104C98.4916 24.208 97.8316 25.156 96.9916 25.948C96.1516 26.74 95.1556 27.352 94.0036 27.784C92.8516 28.216 91.6276 28.432 90.3316 28.432C89.0356 28.432 87.8116 28.216 86.6596 27.784C85.5076 27.352 84.5116 26.74 83.6716 25.948C82.8316 25.156 82.1596 24.208 81.6556 23.104C81.1756 21.976 80.9356 20.728 80.9356 19.36ZM85.2556 19.36C85.2556 20.032 85.3636 20.68 85.5796 21.304C85.8196 21.928 86.1556 22.48 86.5876 22.96C87.0436 23.44 87.5836 23.824 88.2076 24.112C88.8316 24.4 89.5396 24.544 90.3316 24.544C91.1236 24.544 91.8316 24.4 92.4556 24.112C93.0796 23.824 93.6076 23.44 94.0396 22.96C94.4956 22.48 94.8316 21.928 95.0476 21.304C95.2876 20.68 95.4076 20.032 95.4076 19.36C95.4076 18.688 95.2876 18.04 95.0476 17.416C94.8316 16.792 94.4956 16.24 94.0396 15.76C93.6076 15.28 93.0796 14.896 92.4556 14.608C91.8316 14.32 91.1236 14.176 90.3316 14.176C89.5396 14.176 88.8316 14.32 88.2076 14.608C87.5836 14.896 87.0436 15.28 86.5876 15.76C86.1556 16.24 85.8196 16.792 85.5796 17.416C85.3636 18.04 85.2556 18.688 85.2556 19.36ZM104.276 2.512H111.188L117.992 20.368L124.868 2.512H131.708V28H127.388V6.832H127.316L119.576 28H116.408L108.668 6.832H108.596V28H104.276V2.512ZM147.9 25.624H147.792C147.168 26.608 146.376 27.328 145.416 27.784C144.456 28.216 143.4 28.432 142.248 28.432C141.456 28.432 140.676 28.324 139.908 28.108C139.164 27.892 138.492 27.568 137.892 27.136C137.316 26.704 136.848 26.164 136.488 25.516C136.128 24.868 135.948 24.112 135.948 23.248C135.948 22.312 136.116 21.52 136.452 20.872C136.788 20.2 137.232 19.648 137.784 19.216C138.36 18.76 139.02 18.4 139.764 18.136C140.508 17.872 141.276 17.68 142.068 17.56C142.884 17.416 143.7 17.332 144.516 17.308C145.332 17.26 146.1 17.236 146.82 17.236H147.9V16.768C147.9 15.688 147.528 14.884 146.784 14.356C146.04 13.804 145.092 13.528 143.94 13.528C143.028 13.528 142.176 13.696 141.384 14.032C140.592 14.344 139.908 14.776 139.332 15.328L137.064 13.06C138.024 12.076 139.14 11.368 140.412 10.936C141.708 10.504 143.04 10.288 144.408 10.288C145.632 10.288 146.664 10.432 147.504 10.72C148.344 10.984 149.04 11.332 149.592 11.764C150.144 12.196 150.564 12.7 150.852 13.276C151.164 13.828 151.38 14.392 151.5 14.968C151.644 15.544 151.728 16.108 151.752 16.66C151.776 17.188 151.788 17.656 151.788 18.064V28H147.9V25.624ZM147.648 20.26H146.748C146.148 20.26 145.476 20.284 144.732 20.332C143.988 20.38 143.28 20.5 142.608 20.692C141.96 20.86 141.408 21.124 140.952 21.484C140.496 21.82 140.268 22.3 140.268 22.924C140.268 23.332 140.352 23.68 140.52 23.968C140.712 24.232 140.952 24.46 141.24 24.652C141.528 24.844 141.852 24.988 142.212 25.084C142.572 25.156 142.932 25.192 143.292 25.192C144.78 25.192 145.872 24.844 146.568 24.148C147.288 23.428 147.648 22.456 147.648 21.232V20.26ZM156.436 10.72H160.54V13.492H160.612C161.02 12.628 161.644 11.884 162.484 11.26C163.324 10.612 164.464 10.288 165.904 10.288C167.056 10.288 168.028 10.48 168.82 10.864C169.636 11.248 170.296 11.752 170.8 12.376C171.304 13 171.664 13.72 171.88 14.536C172.096 15.352 172.204 16.204 172.204 17.092V28H167.884V19.252C167.884 18.772 167.86 18.244 167.812 17.668C167.764 17.068 167.632 16.516 167.416 16.012C167.224 15.484 166.912 15.052 166.48 14.716C166.048 14.356 165.46 14.176 164.716 14.176C163.996 14.176 163.384 14.296 162.88 14.536C162.4 14.776 161.992 15.1 161.656 15.508C161.344 15.916 161.116 16.384 160.972 16.912C160.828 17.44 160.756 17.992 160.756 18.568V28H156.436V10.72ZM177.18 10.72H181.5V28H177.18V10.72ZM176.568 4.852C176.568 4.156 176.82 3.556 177.324 3.052C177.852 2.524 178.512 2.26 179.304 2.26C180.096 2.26 180.756 2.512 181.284 3.016C181.836 3.496 182.112 4.108 182.112 4.852C182.112 5.596 181.836 6.22 181.284 6.724C180.756 7.204 180.096 7.444 179.304 7.444C178.512 7.444 177.852 7.192 177.324 6.688C176.82 6.16 176.568 5.548 176.568 4.852ZM197.26 25.624H197.152C196.528 26.608 195.736 27.328 194.776 27.784C193.816 28.216 192.76 28.432 191.608 28.432C190.816 28.432 190.036 28.324 189.268 28.108C188.524 27.892 187.852 27.568 187.252 27.136C186.676 26.704 186.208 26.164 185.848 25.516C185.488 24.868 185.308 24.112 185.308 23.248C185.308 22.312 185.476 21.52 185.812 20.872C186.148 20.2 186.592 19.648 187.144 19.216C187.72 18.76 188.38 18.4 189.124 18.136C189.868 17.872 190.636 17.68 191.428 17.56C192.244 17.416 193.06 17.332 193.876 17.308C194.692 17.26 195.46 17.236 196.18 17.236H197.26V16.768C197.26 15.688 196.888 14.884 196.144 14.356C195.4 13.804 194.452 13.528 193.3 13.528C192.388 13.528 191.536 13.696 190.744 14.032C189.952 14.344 189.268 14.776 188.692 15.328L186.424 13.06C187.384 12.076 188.5 11.368 189.772 10.936C191.068 10.504 192.4 10.288 193.768 10.288C194.992 10.288 196.024 10.432 196.864 10.72C197.704 10.984 198.4 11.332 198.952 11.764C199.504 12.196 199.924 12.7 200.212 13.276C200.524 13.828 200.74 14.392 200.86 14.968C201.004 15.544 201.088 16.108 201.112 16.66C201.136 17.188 201.148 17.656 201.148 18.064V28H197.26V25.624ZM197.008 20.26H196.108C195.508 20.26 194.836 20.284 194.092 20.332C193.348 20.38 192.64 20.5 191.968 20.692C191.32 20.86 190.768 21.124 190.312 21.484C189.856 21.82 189.628 22.3 189.628 22.924C189.628 23.332 189.712 23.68 189.88 23.968C190.072 24.232 190.312 24.46 190.6 24.652C190.888 24.844 191.212 24.988 191.572 25.084C191.932 25.156 192.292 25.192 192.652 25.192C194.14 25.192 195.232 24.844 195.928 24.148C196.648 23.428 197.008 22.456 197.008 21.232V20.26Z" fill="#F6F6F6"/>
</svg>
