<svg width="65" height="34" viewBox="0 0 65 34" fill="none" xmlns="http://www.w3.org/2000/svg">
<path d="M1.16663 17.0001C1.16663 25.7448 8.25521 32.8334 17 32.8334C25.7447 32.8334 32.8333 25.7448 32.8333 17.0001C32.8333 8.25533 25.7447 1.16675 17 1.16675C8.25521 1.16675 1.16663 8.25533 1.16663 17.0001Z" stroke="#F6F6F6" stroke-width="2" stroke-linecap="round" stroke-linejoin="round"/>
<path d="M18.5833 1.24585C18.5833 1.24585 23.3333 7.50002 23.3333 17C23.3333 26.5 18.5833 32.7542 18.5833 32.7542" stroke="#F6F6F6" stroke-width="2" stroke-linecap="round" stroke-linejoin="round"/>
<path d="M15.4166 32.7542C15.4166 32.7542 10.6666 26.5 10.6666 17C10.6666 7.50002 15.4166 1.24585 15.4166 1.24585" stroke="#F6F6F6" stroke-width="2" stroke-linecap="round" stroke-linejoin="round"/>
<path d="M2.16412 22.5417H31.8358" stroke="#F6F6F6" stroke-width="2" stroke-linecap="round" stroke-linejoin="round"/>
<path d="M2.16412 11.4585H31.8358" stroke="#F6F6F6" stroke-width="2" stroke-linecap="round" stroke-linejoin="round"/>
<path d="M42.3679 12.256V20.41C42.3679 22.894 44.1139 25.324 47.4979 25.324C50.8639 25.324 52.6279 22.912 52.6279 20.41V12.256H50.3599V20.302C50.3599 21.472 49.6939 23.164 47.4979 23.164C45.3019 23.164 44.6359 21.472 44.6359 20.302V12.256H42.3679ZM59.6602 11.932C56.8882 11.932 54.9622 13.48 54.9622 15.784C54.9622 18.088 56.4382 18.862 58.7242 19.564C60.3622 20.068 61.0102 20.572 61.0102 21.526C61.0102 22.552 60.0022 23.272 58.7782 23.272C57.7522 23.272 56.8162 22.786 56.2582 21.94L54.5482 23.596C55.5382 24.784 57.0142 25.324 58.8142 25.324C61.3162 25.324 63.3862 23.884 63.3862 21.256C63.3862 18.628 61.3522 17.98 59.3182 17.35C58.0582 16.954 57.3382 16.486 57.3382 15.622C57.3382 14.632 58.1482 13.984 59.4262 13.984C60.3082 13.984 61.1542 14.29 61.6582 14.992L63.3142 13.246C62.4142 12.4 61.1182 11.932 59.6602 11.932Z" fill="#F6F6F6"/>
</svg>
